# xmcd
#
# Track frame offsets:
# 150
# 17000
# 38312
# 58033
# 72019
# 92010
# 127892
# 158169
# 193910
# 237053
#
# Disc length: 3366 seconds
#
# Revision: 0
# Processed by: cddbd v1.5.2PL0 Copyright (c) Steve Scherf et al.
# Submitted via: Audion 3.0.2 (http://www.panic.com/audion/)
#
DISCID=730d240a
DTITLE=Grand Funk Railroad - Grand Funk
DYEAR=1900
DGENRE=
TTITLE0=Got This Thing On The Move
TTITLE1=Please Don't Worry
TTITLE2=High Falootin' Woman
TTITLE3=Mr Limousine Driver
TTITLE4=In Need
TTITLE5=Winter And My Soul
TTITLE6=Paranoid
TTITLE7=Inside Looking Out
TTITLE8=
TTITLE9=
EXTD=
EXTT0=
EXTT1=
EXTT2=
EXTT3=
EXTT4=
EXTT5=
EXTT6=
EXTT7=
EXTT8=
EXTT9=
PLAYORDER=
